<?xml version="1.0" encoding="UTF-8" standalone="no"?><!DOCTYPE svg PUBLIC "-//W3C//DTD SVG 1.1//EN" "http://www.w3.org/Graphics/SVG/1.1/DTD/svg11.dtd"><svg width="100%" height="100%" viewBox="0 0 920 920" version="1.1" xmlns="http://www.w3.org/2000/svg" xmlns:xlink="http://www.w3.org/1999/xlink" xml:space="preserve" xmlns:serif="http://www.serif.com/" style="fill-rule:evenodd;clip-rule:evenodd;stroke-linejoin:round;stroke-miterlimit:2;"><g id="App-Icon" serif:id="App Icon"><g id="Icon"><rect x="0" y="0" width="919.2" height="919.223" style="fill:none;"/></g><path d="M498.314,306.579c0,0 0.676,-9.717 2.384,-14.189c2.567,-6.722 9.535,-20.351 13.02,-26.139c2.011,-3.341 6.54,-6.13 7.885,-8.588c0.982,-1.795 -0.592,-4.265 0.183,-6.161c5.263,-12.871 14.194,-24.471 19.072,-28.94c1.009,-0.924 2.913,0.22 4.034,-0.56c1.253,-0.871 2.934,-3.018 3.484,-4.667c0.55,-1.649 -0.843,-3.619 -0.183,-5.228c2.879,-7.026 16.333,-22.666 22.739,-27.072c1.523,-1.048 3.992,-0.586 5.134,-2.054c1.284,-1.649 0.8,-5.755 2.567,-7.841c10.612,-12.522 21.456,-20.164 26.774,-24.272c1.367,-1.056 3.82,-0.062 5.134,-0.373c1.012,-0.24 2.153,-0.628 2.751,-1.494c0.795,-1.151 0.781,-3.951 2.017,-5.414c9.609,-11.377 24.664,-17.239 30.991,-20.724c2.044,-1.126 5.562,0.466 6.968,-0.187c1.198,-0.557 0.536,-2.786 1.467,-3.734c1.376,-1.4 18.21,-12.877 41.26,-14.003c1.284,-0.063 2.476,2.023 3.485,1.68c1.008,-0.342 1.119,-3.365 2.567,-3.734c3.912,-0.995 13.906,-2.085 20.905,-2.24c6.999,-0.156 16.993,0.529 21.088,1.307c1.573,0.298 2.201,2.956 3.485,3.36c1.283,0.405 2.792,-1.133 4.217,-0.933c2.659,0.373 7.838,2.065 11.737,3.174c10.112,2.876 26.463,19.041 26.463,19.041c0,0 -11.412,-0.53 -28.114,5.79c-4.246,1.607 -11.094,0.903 -13.57,0.747c-0.695,-0.043 -0.626,-1.916 -1.283,-1.68c-1.04,0.373 -2.985,3.197 -4.952,3.921c-2.873,1.058 -25.459,6.939 -27.323,7.095c-1.507,0.125 -3.148,-1.681 -4.401,-1.121c-1.253,0.56 -1.714,3.338 -3.117,4.481c-2.751,2.241 -9.414,6.255 -13.387,8.962c-3.509,2.391 -7.763,6.006 -10.453,7.281c-1.721,0.817 -4.554,-0.466 -5.684,0.374c-1.131,0.84 -0.098,3.435 -1.101,4.667c-3.698,4.544 -16.87,18.733 -21.088,22.592c-1.055,0.964 -3.393,-0.592 -4.218,0.56c-0.825,1.151 0.325,4.51 -0.733,6.348c-2.904,5.041 -13.204,19.697 -16.688,23.898c-0.948,1.143 -3.508,-0.003 -4.217,1.307c-0.978,1.804 -0.425,6.55 -1.651,9.522c-2.17,5.258 -8.588,17.705 -11.369,22.031c-1.199,1.864 -4.307,1.944 -5.318,3.92c-1.131,2.21 -0.533,6.331 -1.467,9.336c-1.742,5.601 -6.632,19.759 -8.986,24.271c-0.91,1.746 -4.409,0.967 -5.134,2.801c-0.948,2.396 0.185,7.785 -0.55,11.575c-0.979,5.041 -5.441,14.128 -5.318,18.671c0.094,3.522 3.948,5.79 6.051,8.588c2.69,3.579 6.418,9.926 10.086,12.883c3.355,2.704 7.824,4.356 11.919,4.854c4.096,0.498 8.864,-0.125 12.653,-1.867c3.79,-1.743 6.864,-5.564 10.086,-8.589c5.868,-5.507 17.757,-18.577 25.123,-24.458c5.728,-4.573 12.261,-8.213 19.071,-10.829c8.589,-3.298 21.441,-6.851 32.458,-8.961c18.032,-3.454 59.873,-9.055 75.735,-11.763c6.552,-1.118 14.273,-3.329 19.439,-4.481c3.841,-0.856 8.802,-2.489 11.552,-2.427c1.888,0.043 4.283,1.003 4.952,2.801c3.392,9.117 -0.165,26.335 -2.201,33.98c-2.078,7.804 -5.117,15.616 -8.069,23.487c-2.329,6.211 -17.944,31.44 -46.394,47.834c-11.167,6.434 -24.36,11.477 -36.859,16.43c-12.959,5.134 -40.894,14.376 -40.894,14.376c0,0 -38.114,12.973 -57.769,32.827c-9.012,9.104 -13.381,19.45 -13.381,19.45c0,0 -2.012,8.767 -3.301,13.069c-1.864,6.224 -7.885,24.272 -7.885,24.272l-21.639,57.878c0,0 -34.813,90.996 -35.025,95.966c-1.886,44.143 -20.794,92.188 -50.578,112.987c-10.44,7.29 -21.868,8.707 -34.781,10.124c-3.728,0.41 -8.096,0.305 -8.409,0.296c0,0.003 -4.638,0.121 -8.433,-0.296c-12.912,-1.417 -24.34,-2.834 -34.78,-10.124c-29.785,-20.799 -48.693,-68.844 -50.578,-112.987c-0.213,-4.97 -35.025,-95.966 -35.025,-95.966l-21.639,-57.878c0,0 -6.021,-18.048 -7.885,-24.272c-1.289,-4.302 -3.301,-13.069 -3.301,-13.069c0,0 -4.369,-10.346 -13.381,-19.45c-19.655,-19.854 -57.77,-32.827 -57.77,-32.827c0,0 -27.934,-9.242 -40.893,-14.376c-12.499,-4.953 -25.692,-9.996 -36.859,-16.43c-28.45,-16.394 -44.066,-41.623 -46.395,-47.834c-2.951,-7.871 -5.99,-15.683 -8.068,-23.487c-2.036,-7.645 -5.593,-24.863 -2.201,-33.98c0.669,-1.798 3.064,-2.758 4.951,-2.801c2.751,-0.062 7.712,1.571 11.553,2.427c5.165,1.152 12.886,3.363 19.438,4.481c15.862,2.708 57.703,8.309 75.735,11.763c11.017,2.11 23.87,5.663 32.458,8.961c6.811,2.616 13.344,6.256 19.072,10.829c7.365,5.881 19.254,18.951 25.122,24.458c3.223,3.025 6.296,6.846 10.086,8.589c3.79,1.742 8.558,2.365 12.653,1.867c4.096,-0.498 8.565,-2.15 11.92,-4.854c3.667,-2.957 7.396,-9.304 10.086,-12.883c2.103,-2.798 5.956,-5.066 6.051,-8.588c0.122,-4.543 -4.34,-13.63 -5.318,-18.671c-0.735,-3.79 0.397,-9.179 -0.55,-11.575c-0.725,-1.834 -4.224,-1.055 -5.135,-2.801c-2.353,-4.512 -7.243,-18.67 -8.985,-24.271c-0.935,-3.005 -0.336,-7.126 -1.467,-9.336c-1.012,-1.976 -4.119,-2.056 -5.318,-3.92c-2.781,-4.326 -9.2,-16.773 -11.37,-22.031c-1.226,-2.972 -0.672,-7.718 -1.65,-9.522c-0.71,-1.31 -3.27,-0.164 -4.218,-1.307c-3.484,-4.201 -13.784,-18.857 -16.687,-23.898c-1.059,-1.838 0.092,-5.197 -0.734,-6.348c-0.825,-1.152 -3.163,0.404 -4.217,-0.56c-4.218,-3.859 -17.391,-18.048 -21.089,-22.592c-1.003,-1.232 0.031,-3.827 -1.1,-4.667c-1.131,-0.84 -3.964,0.443 -5.685,-0.374c-2.689,-1.275 -6.944,-4.89 -10.452,-7.281c-3.974,-2.707 -10.636,-6.721 -13.387,-8.962c-1.404,-1.143 -1.864,-3.921 -3.117,-4.481c-1.253,-0.56 -2.894,1.246 -4.401,1.121c-1.865,-0.156 -24.451,-6.037 -27.324,-7.095c-1.966,-0.724 -3.912,-3.548 -4.951,-3.921c-0.657,-0.236 -0.588,1.637 -1.284,1.68c-2.475,0.156 -9.323,0.86 -13.57,-0.747c-16.701,-6.32 -28.113,-5.79 -28.113,-5.79c0,0 16.351,-16.165 26.463,-19.041c3.898,-1.109 9.077,-2.801 11.736,-3.174c1.425,-0.2 2.934,1.338 4.218,0.933c1.284,-0.404 1.911,-3.062 3.484,-3.36c4.096,-0.778 14.09,-1.463 21.089,-1.307c6.998,0.155 16.993,1.245 20.905,2.24c1.447,0.369 1.558,3.392 2.567,3.734c1.009,0.343 2.201,-1.743 3.484,-1.68c23.051,1.126 39.885,12.603 41.26,14.003c0.931,0.948 0.269,3.177 1.467,3.734c1.406,0.653 4.925,-0.939 6.969,0.187c6.326,3.485 21.381,9.347 30.99,20.724c1.237,1.463 1.223,4.263 2.018,5.414c0.597,0.866 1.738,1.254 2.75,1.494c1.315,0.311 3.768,-0.683 5.135,0.373c5.318,4.108 16.162,11.75 26.773,24.272c1.768,2.086 1.284,6.192 2.567,7.841c1.142,1.468 3.611,1.006 5.135,2.054c6.406,4.406 19.86,20.046 22.739,27.072c0.659,1.609 -0.734,3.579 -0.184,5.228c0.551,1.649 2.232,3.796 3.485,4.667c1.12,0.78 3.025,-0.364 4.034,0.56c4.878,4.469 13.808,16.069 19.071,28.94c0.776,1.896 -0.798,4.366 0.184,6.161c1.344,2.458 5.874,5.247 7.885,8.588c3.484,5.788 10.452,19.417 13.02,26.139c1.708,4.472 2.384,14.189 2.384,14.189l36.565,9.559l36.566,-9.559Z"/></g></svg>