<svg xmlns="http://www.w3.org/2000/svg" viewBox="0 0 52.917 52.917" height="200" width="200">
    <g>
        <path d="M36.262 39.514h-4.776l.055-19.575-7.817-1.774v-4.769l20.99 4.586v4.769l-8.18-1.654z"/>
        <path d="M0 0v52.917h52.917V0zm48.596 48.598H4.321V4.32h44.275z"/>
        <path d="M23.94 42.986a24.339 24.339 0 0 0 1.874-3.808c.608-1.509 1.045-3.123 1.085-4.786a9.313 9.313 0 0 0-.56-3.476c-.498-1.358-1.329-2.565-2.32-3.572-1.174-1.196-2.56-2.131-4.005-2.9-1.982-1.041-4.09-1.79-6.235-2.298-.23-.05-.46-.117-.694-.133a46.67 46.67 0 0 1 4.631 2.753c1.326.91 2.611 1.895 3.783 3.025 1.128 1.094 2.175 2.322 2.896 3.761.358.727.634 1.512.708 2.328.03.31.024.625-.035.93-1.487.395-3.061.34-4.577.046-1.587-.314-3.121-.93-4.548-1.75-1.32-.758-2.574-1.673-3.637-2.81-1.528-1.61-2.668-3.607-3.424-5.73-.637-1.786-1.015-3.662-1.206-5.548a26.626 26.626 0 0 1-.02-5.111c.467.446.938.889 1.44 1.29a17.58 17.58 0 0 0 3.57 2.24c1.748.838 3.605 1.36 5.46 1.823 1.586.414 3.208.765 4.687 1.548 1.517.778 2.925 1.862 3.98 3.276 1.013 1.335 1.678 2.947 1.975 4.615.337 1.85.262 3.753-.075 5.578a19.085 19.085 0 0 1-1.392 4.426c-.689 1.557-1.737 2.902-2.938 4.037-.104.084-.203.176-.303.267l-.064.056c-.046.038-.077.06-.122.1-.036.026-.07.054-.105.081"/>
    </g>
</svg>